<mxfile host="app.diagrams.net" modified="2020-08-30T13:18:17.108Z" agent="5.0 (Macintosh)" etag="8DQ-yYz87kFu4pfbxksk" version="13.6.5" type="github">
  <diagram id="h0CLasHUSwak-9JlGtGW" name="第 1 页">
    <mxGraphModel dx="1186" dy="750" grid="1" gridSize="10" guides="1" tooltips="1" connect="1" arrows="1" fold="1" page="1" pageScale="1" pageWidth="827" pageHeight="1169" math="0" shadow="0">
      <root>
        <mxCell id="0" />
        <mxCell id="1" parent="0" />
        <mxCell id="f5V9ySkN_TTqAytjc1SM-6" value="Text" style="text;html=1;strokeColor=none;fillColor=none;align=center;verticalAlign=middle;whiteSpace=wrap;rounded=0;" vertex="1" parent="1">
          <mxGeometry x="220" y="75" width="40" height="20" as="geometry" />
        </mxCell>
        <mxCell id="f5V9ySkN_TTqAytjc1SM-7" value="" style="shape=process;whiteSpace=wrap;html=1;backgroundOutline=1;" vertex="1" parent="1">
          <mxGeometry x="100" y="340" width="120" height="60" as="geometry" />
        </mxCell>
      </root>
    </mxGraphModel>
  </diagram>
</mxfile>
